<svg width="656" height="151" viewBox="0 0 656 151" fill="none" xmlns="http://www.w3.org/2000/svg">
<path d="M1.59702e-05 7.05293H34.5021V46.8923H64.048V7.05293H98.5501V115.706H64.048V68.8135H34.5021V115.706H1.59702e-05V7.05293ZM206.849 28.021L183.974 101.409C179.526 115.515 175.523 125.745 171.965 132.099C168.407 138.58 164.849 143.091 161.291 145.633C159.257 147.031 156.017 148.111 151.569 148.874C147.248 149.636 142.546 150.017 137.463 150.017C129.838 150.017 123.739 149.318 119.164 147.92C119.037 144.871 119.164 141.122 119.545 136.674C119.926 132.353 120.435 128.668 121.07 125.618C126.407 125.872 131.618 125.999 136.701 125.999C140.513 125.999 143.372 125.936 145.279 125.809C147.185 122.123 148.964 118.247 150.616 114.181L137.463 113.418L108.108 28.021H142.61L157.859 89.4004L158.05 93.0221H158.622L172.346 28.021H206.849ZM301.705 1.91466e-05V115.706H274.828L272.159 101.028C269.618 105.984 265.869 109.924 260.913 112.847C255.957 115.769 250.365 117.231 244.138 117.231C234.226 117.231 226.284 113.673 220.311 106.556C214.465 99.4396 211.543 88.765 211.543 74.5321C211.543 63.7303 212.813 54.8348 215.355 47.8454C217.896 40.856 220.883 35.8364 224.314 32.7865C226.474 30.8803 230.859 29.2918 237.467 28.021C244.202 26.7502 250.175 26.1148 255.385 26.1148C259.96 26.1148 264.662 26.5596 269.491 27.4492C269.109 21.3494 268.919 17.9818 268.919 17.3464V1.33436L301.705 1.91466e-05ZM258.435 91.6878C261.866 91.6878 265.424 91.1159 269.109 89.9722V48.6079C265.424 48.0996 261.358 47.8454 256.91 47.8454C253.097 47.8454 250.683 48.1631 249.666 48.7985C248.268 49.8151 247.125 52.738 246.235 57.567C245.473 62.2689 245.091 67.225 245.091 72.4353C245.091 80.1871 246.235 85.3338 248.523 87.8754C250.937 90.417 254.241 91.6878 258.435 91.6878ZM370.526 92.8315C373.703 92.8315 379.612 92.5138 388.254 91.8784C389.398 91.8784 391.494 91.7513 394.544 91.4972L397.404 111.131C387.618 115.706 374.911 117.993 359.28 117.993C344.666 117.993 333.419 114.308 325.54 106.937C317.788 99.5667 313.912 88.4473 313.912 73.579C313.912 65.9542 314.866 58.5836 316.772 51.4672C318.805 44.3507 321.092 39.3946 323.634 36.5989C326.303 33.8031 331.259 31.3886 338.502 29.3554C345.746 27.3221 352.926 26.3055 360.042 26.3055C371.479 26.3055 380.057 28.3387 385.776 32.4053C391.494 36.4718 395.243 42.1268 397.022 49.3704C398.801 56.4868 399.691 66.0813 399.691 78.1538C391.05 78.6622 382.599 78.9163 374.339 78.9163H347.271C347.271 82.9829 348.097 86.0328 349.749 88.066C351.528 90.0993 354.006 91.4336 357.183 92.069C360.36 92.5774 364.808 92.8315 370.526 92.8315ZM349.177 48.9891C348.414 49.3704 347.843 51.0224 347.461 53.9452C347.08 56.8681 346.826 60.1721 346.699 63.8574H356.611C362.584 63.8574 366.905 63.7939 369.573 63.6668C369.573 57.567 368.684 53.2463 366.905 50.7047C365.252 48.1631 362.33 46.8923 358.136 46.8923C354.705 46.8923 351.719 47.5913 349.177 48.9891ZM465.49 26.1148C467.142 26.1148 468.858 26.3055 470.637 26.6867C472.543 27.0679 473.941 27.5127 474.831 28.021C474.831 30.8168 474.513 35.4552 473.878 41.9362C473.242 48.2902 472.67 52.8015 472.162 55.4702C470.891 55.3431 468.54 55.2796 465.109 55.2796C457.103 55.2796 449.987 55.7243 443.76 56.6139V115.706H411.164V28.021H438.422L442.235 42.1268H442.425C446.111 37.2978 450.05 33.4219 454.244 30.4991C458.437 27.5763 462.186 26.1148 465.49 26.1148ZM525.708 118.184C510.459 118.184 499.021 114.626 491.397 107.509C483.899 100.266 480.15 88.8921 480.15 73.3884C480.15 64.8741 480.913 57.4399 482.438 51.0859C484.09 44.6049 486.059 40.0936 488.347 37.552C491.27 34.2479 496.607 31.5157 504.359 29.3554C512.238 27.195 519.608 26.1148 526.471 26.1148C542.864 26.1148 554.555 29.6095 561.544 36.5989C568.534 43.5883 572.029 54.7712 572.029 70.1478C572.029 86.6682 568.28 98.8043 560.782 106.556C553.284 114.308 541.593 118.184 525.708 118.184ZM526.28 95.8814C531.236 95.8814 534.477 94.1659 536.002 90.7347C537.526 87.1765 538.289 80.9496 538.289 72.054C538.289 65.8271 537.971 61.0617 537.336 57.7576C536.7 54.3265 535.493 51.8484 533.714 50.3235C532.062 48.6714 529.457 47.8454 525.899 47.8454C520.816 47.8454 517.893 48.2902 517.13 49.1798C516.114 50.0693 515.288 52.8651 514.652 57.567C514.017 62.2689 513.699 67.1615 513.699 72.2447C513.699 80.8861 514.525 86.9859 516.177 90.5441C517.956 94.1023 521.324 95.8814 526.28 95.8814ZM655.381 85.9692C655.381 97.2793 651.759 105.412 644.516 110.368C637.399 115.325 627.233 117.803 614.017 117.803C604.74 117.803 594.065 116.468 581.993 113.8C582.247 111.258 582.819 107.636 583.708 102.934C584.725 98.1053 585.551 94.42 586.186 91.8784C590.761 92.6409 595.845 93.2763 601.436 93.7846C607.027 94.1659 611.793 94.3565 615.732 94.3565C619.164 94.3565 621.26 94.1659 622.023 93.7846C622.15 93.6575 622.277 93.3398 622.404 92.8315C622.658 92.1961 622.785 91.5607 622.785 90.9253C622.785 88.3837 621.197 86.6682 618.02 85.7786C617.003 85.5245 613.127 84.4443 606.392 82.5381C599.657 80.6319 594.129 77.2008 589.808 72.2447C585.615 67.1615 583.518 60.8711 583.518 53.3734C583.518 49.4339 584.407 45.0497 586.186 40.2206C587.966 35.3916 589.872 32.3417 591.905 31.0709C593.43 30.0543 597.115 29.0377 602.961 28.021C608.807 26.8773 614.207 26.3055 619.164 26.3055C629.711 26.3055 640.322 27.0679 650.997 28.5929C650.997 30.8803 650.679 34.7562 650.044 40.2206C649.408 45.558 648.837 48.9256 648.328 50.3235C637.527 48.9256 628.822 48.2267 622.213 48.2267C618.782 48.2267 616.558 48.4173 615.542 48.7985C615.288 48.9256 615.033 49.3068 614.779 49.9422C614.525 50.4505 614.398 51.1495 614.398 52.039C614.398 53.8181 614.97 55.0889 616.114 55.8514C617.257 56.741 620.244 57.8211 625.073 59.0919C630.791 60.744 635.684 62.4595 639.75 64.2387C643.944 66.0178 647.566 68.6864 650.616 72.2447C653.793 75.8029 655.381 80.3777 655.381 85.9692Z" fill="url(#paint0_linear_4_1260)"/>
<defs>
<linearGradient id="paint0_linear_4_1260" x1="371.278" y1="11.7058" x2="371.278" y2="151.706" gradientUnits="userSpaceOnUse">
<stop stop-color="#4988C4"/>
<stop offset="1" stop-color="#969FA8"/>
</linearGradient>
</defs>
</svg>
