<svg width="230" height="237" viewBox="0 0 230 237" fill="none" xmlns="http://www.w3.org/2000/svg">
<mask id="mask0_7_140" style="mask-type:alpha" maskUnits="userSpaceOnUse" x="0" y="87" width="149" height="150">
<circle cx="74.3784" cy="161.73" r="74.3784" fill="#4988C4"/>
</mask>
<g mask="url(#mask0_7_140)">
<circle cx="74.3784" cy="161.73" r="74.3784" fill="#4988C4"/>
<path d="M191.532 179.885C211.752 178.258 239.436 236.12 239.436 236.12L-25.2609 239.794C-25.2609 239.794 -1.12186 181.08 18.0839 182.293C36.2134 183.438 58.6342 216.07 58.6342 216.07C70.839 196.934 80.8155 185.702 98.0777 181.182C118.945 175.72 130.776 196.102 146.965 214.844C146.965 214.844 172.363 181.428 191.532 179.885Z" fill="#1C4D8D"/>
<path d="M17.8729 123.715C10.2656 132.472 6.63624 143.759 14.3954 134.857C22.1546 125.955 26.1278 122.192 32.4972 117.827C38.8666 113.461 41.1011 102.481 35.1769 106.901C29.2526 111.321 25.4802 114.958 17.8729 123.715Z" fill="#E9E8E8"/>
</g>
<mask id="mask1_7_140" style="mask-type:alpha" maskUnits="userSpaceOnUse" x="148" y="29" width="82" height="81">
<circle cx="188.973" cy="69.6216" r="40.2162" fill="#4988C4"/>
</mask>
<g mask="url(#mask1_7_140)">
<circle cx="188.973" cy="69.6216" r="40.2162" fill="#4988C4"/>
<path d="M234.902 79.4383C245.834 78.5583 260.803 109.844 260.803 109.844L117.682 111.831C117.682 111.831 130.734 80.0841 141.118 80.74C150.921 81.3592 163.044 99.0033 163.044 99.0033C169.643 88.6566 175.037 82.5831 184.371 80.1397C195.654 77.186 202.051 88.2068 210.804 98.3404C210.804 98.3404 224.537 80.2726 234.902 79.4383Z" fill="#1C4D8D"/>
<path d="M161.002 55.1343C157.695 61.1993 155.729 58.2433 158.943 52.2843C162.157 46.3253 164.446 43.6798 169.314 40.0928C169.48 39.9705 169.645 39.8552 169.808 39.7467C174.433 36.6732 177.825 39.0649 172.402 42.6261C167.596 45.7818 165.088 48.2556 162.391 52.706L161.002 55.1343Z" fill="#E9E8E8"/>
</g>
<mask id="mask2_7_140" style="mask-type:alpha" maskUnits="userSpaceOnUse" x="74" y="0" width="59" height="58">
<circle cx="103.351" cy="28.973" r="28.973" fill="#4988C4"/>
</mask>
<g mask="url(#mask2_7_140)">
<circle cx="103.351" cy="28.973" r="28.973" fill="#4988C4"/>
<path d="M136.44 36.0452C144.316 35.4112 155.1 57.9505 155.1 57.9505L51.9911 59.3816C51.9911 59.3816 61.3941 36.5105 68.8754 36.983C75.9375 37.4291 84.6712 50.1404 84.6712 50.1404C89.4254 42.6863 93.3116 38.3108 100.036 36.5505C108.164 34.4226 112.773 42.3623 119.079 49.6628C119.079 49.6628 128.972 36.6463 136.44 36.0452Z" fill="#1C4D8D"/>
<path d="M83.1999 18.5359C80.8174 22.9053 79.4017 20.7757 81.7171 16.4827C84.0324 12.1896 85.6812 10.2837 89.1884 7.69951C89.308 7.6114 89.4267 7.52833 89.5443 7.45017C92.8761 5.23591 95.32 6.959 91.4127 9.52458C87.9504 11.798 86.1438 13.5803 84.2011 16.7865L83.1999 18.5359Z" fill="#E9E8E8"/>
</g>
</svg>
