<svg width="120" height="126" viewBox="0 0 120 126" fill="none" xmlns="http://www.w3.org/2000/svg">
<mask id="mask0_7_141" style="mask-type:alpha" maskUnits="userSpaceOnUse" x="57" y="57" width="82" height="82">
<circle cx="98.1623" cy="98.1622" r="40.2162" fill="#4988C4"/>
</mask>
<g mask="url(#mask0_7_141)">
<circle cx="98.1623" cy="98.1622" r="40.2162" fill="#4988C4"/>
<path d="M144.091 107.979C155.023 107.099 169.992 138.385 169.992 138.385L26.8709 140.371C26.8709 140.371 39.9229 108.625 50.3074 109.281C60.11 109.9 72.2329 127.544 72.2329 127.544C78.832 117.197 84.2262 111.124 93.5598 108.68C104.843 105.727 111.24 116.747 119.993 126.881C119.993 126.881 133.726 108.813 144.091 107.979Z" fill="#1C4D8D"/>
<path d="M70.1906 83.6749C66.8836 89.7399 64.9184 86.7839 68.1323 80.8249C71.3462 74.8659 73.6348 72.2204 78.503 68.6334C78.669 68.5111 78.8338 68.3958 78.9971 68.2873C83.6218 65.2137 87.014 67.6055 81.5905 71.1667C76.7846 74.3223 74.2769 76.7962 71.5804 81.2466L70.1906 83.6749Z" fill="#E9E8E8"/>
</g>
<mask id="mask1_7_141" style="mask-type:alpha" maskUnits="userSpaceOnUse" x="0" y="0" width="58" height="58">
<circle cx="28.973" cy="28.973" r="28.973" fill="#4988C4"/>
</mask>
<g mask="url(#mask1_7_141)">
<circle cx="28.973" cy="28.973" r="28.973" fill="#4988C4"/>
<path d="M62.0612 36.0452C69.9375 35.4112 80.7212 57.9504 80.7212 57.9504L-22.3873 59.3816C-22.3873 59.3816 -12.9843 36.5104 -5.50298 36.983C1.55909 37.4291 10.2928 50.1404 10.2928 50.1404C15.047 42.6863 18.9332 38.3108 25.6574 36.5505C33.7858 34.4225 38.3946 42.3623 44.7005 49.6628C44.7005 49.6628 54.594 36.6463 62.0612 36.0452Z" fill="#1C4D8D"/>
<path d="M8.8215 18.5358C6.43902 22.9053 5.02325 20.7757 7.33864 16.4826C9.65403 12.1896 11.3028 10.2837 14.81 7.69948C14.9296 7.61137 15.0483 7.5283 15.1659 7.45014C18.4977 5.23588 20.9416 6.95897 17.0343 9.52455C13.572 11.798 11.7653 13.5802 9.8227 16.7864L8.8215 18.5358Z" fill="#E9E8E8"/>
</g>
</svg>
