<svg width="234" height="258" viewBox="0 0 234 258" fill="none" xmlns="http://www.w3.org/2000/svg">
<mask id="mask0_4_489" style="mask-type:alpha" maskUnits="userSpaceOnUse" x="-63" y="0" width="297" height="296">
<circle cx="85.6217" cy="147.892" r="147.892" fill="#4988C4"/>
</mask>
<g mask="url(#mask0_4_489)">
<circle cx="85.6217" cy="147.892" r="147.892" fill="#4988C4"/>
<path d="M178.245 183.992C218.449 180.756 273.494 295.807 273.494 295.807L-252.821 303.112C-252.821 303.112 -204.823 186.367 -166.635 188.779C-130.587 191.056 -86.0061 255.941 -86.0061 255.941C-61.7385 217.892 -41.9015 195.557 -7.57792 186.571C33.9136 175.709 57.4388 216.237 89.6274 253.503C89.6274 253.503 140.128 187.06 178.245 183.992Z" fill="#1C4D8D"/>
<path d="M-31.3151 79.4255C-43.134 101.339 -23.002 123.273 -10.8407 100.969C1.3207 78.665 10.433 68.5291 31.0815 54.9709C51.7299 41.4127 24.725 21.4011 6.82238 34.5921C-11.0802 47.7831 -19.4963 57.5117 -31.3151 79.4255Z" fill="#E9E8E8"/>
</g>
</svg>
