<svg width="51" height="51" viewBox="0 0 51 51" fill="none" xmlns="http://www.w3.org/2000/svg">
<path d="M16.4672 4.22241H34.2009C40.9566 4.22241 46.4457 9.71143 46.4457 16.4672V34.2009C46.4457 37.4484 45.1556 40.5629 42.8593 42.8593C40.5629 45.1556 37.4484 46.4457 34.2009 46.4457H16.4672C9.71143 46.4457 4.22241 40.9566 4.22241 34.2009V16.4672C4.22241 13.2196 5.51248 10.1051 7.80881 7.80881C10.1051 5.51248 13.2196 4.22241 16.4672 4.22241ZM16.0449 8.44474C14.0292 8.44474 12.0961 9.24547 10.6708 10.6708C9.24547 12.0961 8.44474 14.0292 8.44474 16.0449V34.6231C8.44474 38.8244 11.8437 42.2233 16.0449 42.2233H34.6231C36.6388 42.2233 38.572 41.4226 39.9973 39.9973C41.4226 38.572 42.2233 36.6388 42.2233 34.6231V16.0449C42.2233 11.8437 38.8244 8.44474 34.6231 8.44474H16.0449ZM36.4176 11.6115C37.1175 11.6115 37.7888 11.8895 38.2837 12.3844C38.7786 12.8793 39.0566 13.5505 39.0566 14.2504C39.0566 14.9503 38.7786 15.6216 38.2837 16.1165C37.7888 16.6114 37.1175 16.8894 36.4176 16.8894C35.7177 16.8894 35.0465 16.6114 34.5516 16.1165C34.0567 15.6216 33.7787 14.9503 33.7787 14.2504C33.7787 13.5505 34.0567 12.8793 34.5516 12.3844C35.0465 11.8895 35.7177 11.6115 36.4176 11.6115ZM25.334 14.7782C28.1336 14.7782 30.8185 15.8904 32.7981 17.87C34.7777 19.8495 35.8898 22.5345 35.8898 25.334C35.8898 28.1336 34.7777 30.8185 32.7981 32.7981C30.8185 34.7777 28.1336 35.8898 25.334 35.8898C22.5345 35.8898 19.8495 34.7777 17.87 32.7981C15.8904 30.8185 14.7782 28.1336 14.7782 25.334C14.7782 22.5345 15.8904 19.8495 17.87 17.87C19.8495 15.8904 22.5345 14.7782 25.334 14.7782ZM25.334 19.0005C23.6543 19.0005 22.0433 19.6678 20.8556 20.8556C19.6678 22.0433 19.0005 23.6543 19.0005 25.334C19.0005 27.0138 19.6678 28.6247 20.8556 29.8125C22.0433 31.0002 23.6543 31.6675 25.334 31.6675C27.0138 31.6675 28.6247 31.0002 29.8125 29.8125C31.0002 28.6247 31.6675 27.0138 31.6675 25.334C31.6675 23.6543 31.0002 22.0433 29.8125 20.8556C28.6247 19.6678 27.0138 19.0005 25.334 19.0005Z" fill="white"/>
</svg>
