<svg width="738" height="428" viewBox="0 0 738 428" fill="none" xmlns="http://www.w3.org/2000/svg">
<ellipse cx="42.5782" cy="43.0479" rx="42.5782" ry="43.0479" transform="matrix(0.997556 -0.0698681 0.0683445 0.997662 66.5085 10.7263)" fill="#BDE8F5"/>
<rect width="100.265" height="206.445" rx="11.0737" transform="matrix(0.997556 -0.0698681 0.0683445 0.997662 65.3567 107.786)" fill="#BDE8F5"/>
<rect width="40.3993" height="138.351" rx="11.0737" transform="matrix(0.828974 -0.560471 0.551229 0.833568 124.426 119.306)" fill="#BDE8F5"/>
<rect width="40.289" height="120.812" rx="11.0737" transform="matrix(0.997984 -0.063304 0.0619236 0.998091 78.7542 291.989)" fill="#BDE8F5"/>
<rect width="40.289" height="120.812" rx="11.0737" transform="matrix(0.997984 -0.063304 0.0619236 0.998091 136.756 287.926)" fill="#BDE8F5"/>
<rect width="37.405" height="137.955" rx="11.0737" transform="matrix(0.914236 0.403623 -0.396679 0.918635 69.5564 105.172)" fill="#BDE8F5"/>
<ellipse cx="29.539" cy="29.8501" rx="29.539" ry="29.8501" transform="matrix(0.986071 0.166324 -0.162777 0.986663 300.332 134.013)" fill="#0F2854"/>
<rect width="69.5596" height="143.152" rx="7.68058" transform="matrix(0.986071 0.166324 -0.162777 0.986663 284.088 199.303)" fill="#0F2854"/>
<rect width="28.0239" height="95.9463" rx="7.68057" transform="matrix(0.934945 -0.350371 0.34468 0.940362 322.102 216.698)" fill="#0F2854"/>
<rect width="27.9509" height="83.7729" rx="7.68058" transform="matrix(0.98498 0.172807 -0.169122 0.985572 263.773 325.752)" fill="#0F2854"/>
<rect width="27.9509" height="83.7729" rx="7.68058" transform="matrix(0.98498 0.172807 -0.169122 0.985572 303.55 332.461)" fill="#0F2854"/>
<rect width="25.9473" height="95.6702" rx="7.68058" transform="matrix(0.79638 0.607245 -0.596966 0.800438 287.338 198.224)" fill="#0F2854"/>
<ellipse cx="27.1318" cy="27.4205" rx="27.1318" ry="27.4205" transform="matrix(0.98859 -0.150628 0.147401 0.989077 445.39 141.289)" fill="#0F2854"/>
<rect width="63.8911" height="131.501" rx="7.05506" transform="matrix(0.98859 -0.150628 0.147401 0.989077 449.57 202.986)" fill="#0F2854"/>
<rect width="25.7409" height="88.1346" rx="7.05505" transform="matrix(0.781698 -0.625923 0.615722 0.786184 487.665 207.245)" fill="#0F2854"/>
<rect width="25.6731" height="76.9544" rx="7.05506" transform="matrix(0.989538 -0.144122 0.141033 0.990026 467.4 319.269)" fill="#0F2854"/>
<rect width="25.6731" height="76.9544" rx="7.05506" transform="matrix(0.989538 -0.144122 0.141033 0.990026 504.029 313.688)" fill="#0F2854"/>
<rect width="23.8333" height="87.8813" rx="7.05505" transform="matrix(0.943239 0.328034 -0.322461 0.947987 452.105 201.108)" fill="#0F2854"/>
<ellipse cx="660.062" cy="153.422" rx="29.9047" ry="30.2378" fill="#0F2854"/>
<rect x="624.691" y="191.138" width="70.4208" height="145.011" rx="7.77802" fill="#0F2854"/>
<rect width="28.3751" height="97.1782" rx="7.77802" transform="matrix(0.865318 -0.501223 0.492932 0.870068 665.529 202.109)" fill="#0F2854"/>
<rect width="28.2969" height="84.8609" rx="7.77802" transform="matrix(0.999978 0.00657865 -0.00643452 0.999979 625.237 320.868)" fill="#0F2854"/>
<rect width="28.2969" height="84.8609" rx="7.77802" transform="matrix(0.999978 0.00657865 -0.00643452 0.999979 666.074 320.868)" fill="#0F2854"/>
<rect width="26.2719" height="96.9004" rx="7.77802" transform="matrix(0.884494 0.466552 -0.458497 0.888696 627.76 189.512)" fill="#0F2854"/>
</svg>
