<svg width="1040" height="389" viewBox="0 0 1040 389" fill="none" xmlns="http://www.w3.org/2000/svg">
<mask id="mask0_4_470" style="mask-type:alpha" maskUnits="userSpaceOnUse" x="131" y="250" width="909" height="139">
<path d="M329.005 289.123C330.283 290.706 331.188 294.65 331.72 300.953C332.395 307.257 332.691 316.852 332.607 329.738L332.269 381.71L295.545 381.471L295.88 329.929C295.884 329.356 295.902 326.564 295.935 321.553C295.968 316.399 295.631 313.247 294.922 312.097C294.496 311.521 293.425 311.085 291.709 310.787C290.136 310.491 288.276 310.335 286.128 310.321L282.476 310.512C278.466 310.63 274.308 311.533 270.002 313.223L269.559 381.302L232.835 381.064L233.456 285.496L204.464 285.307L203.843 380.876L165.186 380.624L165.807 285.056L131.23 284.832L131.405 257.986L233.631 258.651L233.672 252.208L270.406 250.943L270.243 276.07C270.176 286.378 269.773 293.248 269.035 296.68L269.249 296.896C279.056 285.935 290.76 280.499 304.362 280.587C309.516 280.62 314.308 281.367 318.737 282.828C323.309 284.29 326.732 286.388 329.005 289.123Z" fill="#4988C4"/>
<path d="M409.396 356.438C412.976 356.462 419.636 356.147 429.376 355.494C430.665 355.503 433.028 355.375 436.466 355.111L439.544 377.252C428.486 382.335 414.152 384.819 396.541 384.705C380.076 384.598 367.433 380.363 358.61 372.002C349.93 363.641 345.645 351.085 345.754 334.333C345.809 325.743 346.937 317.446 349.137 309.442C351.48 301.439 354.093 295.872 356.977 292.741C360.004 289.611 365.606 286.927 373.781 284.689C381.957 282.451 390.054 281.358 398.072 281.41C410.957 281.494 420.606 283.848 427.02 288.471C433.433 293.095 437.615 299.493 439.566 307.667C441.519 315.698 442.451 326.514 442.362 340.115C432.623 340.625 423.1 340.849 413.793 340.789L383.298 340.591C383.268 345.172 384.176 348.615 386.022 350.917C388.012 353.221 390.794 354.743 394.369 355.482C397.944 356.078 402.954 356.397 409.396 356.438ZM385.664 306.887C384.802 307.311 384.146 309.168 383.695 312.459C383.244 315.749 382.934 319.469 382.763 323.621L393.931 323.693C400.66 323.737 405.529 323.697 408.536 323.573C408.581 316.701 407.61 311.826 405.624 308.95C403.782 306.074 400.498 304.621 395.773 304.591C391.908 304.565 388.538 305.331 385.664 306.887Z" fill="#4988C4"/>
<path d="M561.403 383.198L513.082 382.884L482.308 260.266L523.542 260.534L539.279 350.624L540.353 350.631L558.333 260.76L598.708 261.022L615.948 351.122L616.593 351.127L633.714 261.249L673.23 261.506L640.865 383.714L592.758 383.402L578.663 305.134L577.374 305.126L561.403 383.198Z" fill="#4988C4"/>
<path d="M735.958 384.332L732.61 370.78C725.954 381.475 716.756 386.785 705.016 386.708C695.423 386.646 687.566 383.946 681.444 378.609C675.466 373.129 672.509 365.521 672.572 355.786C672.611 349.772 674.363 344.558 677.828 340.142C681.437 335.583 686.326 332.394 692.495 330.572C700.527 328.334 712.92 327.125 729.673 326.948C729.734 317.498 729.338 312.485 728.482 311.906C727.77 311.329 725.481 311.028 721.615 311.003C719.182 310.987 715.816 311.108 711.519 311.367C704.645 311.608 695.333 312.335 683.585 313.548C682.49 305.809 681.685 297.499 681.169 288.619C688.768 287.093 696.722 285.856 705.033 284.908C713.344 283.816 720.793 283.292 727.379 283.335C738.833 283.409 747.411 285.398 753.113 289.301C758.815 293.06 762.506 298.024 764.184 304.192C765.862 310.359 766.599 318.167 766.394 327.616L765.974 359.184L766.454 384.53L735.958 384.332ZM717.628 362.736C721.351 362.76 725.293 362.07 729.454 360.665L729.557 344.773L727.839 344.762C717.244 344.693 711.371 345.228 710.218 346.366C709.497 347.077 708.918 348.147 708.479 349.576C708.183 351.006 708.031 352.365 708.023 353.653C708 357.09 708.772 359.457 710.339 360.756C711.906 362.055 714.335 362.715 717.628 362.736Z" fill="#4988C4"/>
<path d="M828.399 344.341C828.383 346.918 828.436 349.639 828.561 352.504C828.687 355.225 829.105 356.946 829.816 357.666C830.812 358.675 834.316 359.199 840.33 359.238L847.633 359.071C848.877 365.951 849.469 373.902 849.411 382.921C846.684 383.906 842.669 384.811 837.366 385.635C832.206 386.461 827.264 386.858 822.539 386.828C812.66 386.763 805.015 384.566 799.602 380.235C794.333 375.763 791.729 368.945 791.788 359.782L792.131 306.951L776.024 306.846L776.151 287.303L792.268 285.904L802.086 262.343L828.941 261.014L828.777 286.141L851.542 286.289L851.405 307.336L828.641 307.188L828.399 344.341Z" fill="#4988C4"/>
<path d="M921.969 359.768C925.548 359.791 932.208 359.477 941.948 358.824C943.237 358.832 945.6 358.705 949.038 358.441L952.116 380.582C941.058 385.664 926.724 388.149 909.114 388.034C892.649 387.927 880.005 383.693 871.182 375.331C862.502 366.97 858.217 354.414 858.326 337.663C858.382 329.073 859.509 320.776 861.709 312.772C864.052 304.769 866.665 299.202 869.549 296.071C872.576 292.94 878.178 290.256 886.354 288.019C894.529 285.781 902.626 284.688 910.644 284.74C923.529 284.824 933.179 287.177 939.592 291.801C946.005 296.424 950.187 302.823 952.138 310.997C954.091 319.027 955.023 329.844 954.935 343.445C945.195 343.955 935.672 344.179 926.366 344.119L895.87 343.92C895.84 348.502 896.748 351.944 898.595 354.247C900.584 356.551 903.366 358.072 906.941 358.811C910.517 359.407 915.526 359.726 921.969 359.768ZM898.236 310.217C897.375 310.641 896.718 312.498 896.267 315.788C895.816 319.078 895.506 322.799 895.336 326.95L906.503 327.023C913.232 327.066 918.101 327.027 921.108 326.903C921.153 320.031 920.182 315.156 918.197 312.28C916.354 309.404 913.07 307.951 908.346 307.92C904.48 307.895 901.11 308.661 898.236 310.217Z" fill="#4988C4"/>
<path d="M1029.45 285.297C1031.31 285.309 1033.24 285.536 1035.24 285.979C1037.39 286.423 1038.96 286.934 1039.96 287.513C1039.94 290.663 1039.54 295.886 1038.78 303.184C1038.02 310.338 1037.34 315.416 1036.75 318.419C1035.32 318.267 1032.67 318.178 1028.8 318.153C1019.78 318.094 1011.76 318.543 1004.74 319.5L1004.31 386.075L967.585 385.837L968.227 287.047L998.938 287.247L1003.13 303.167L1003.34 303.168C1007.53 297.755 1012 293.417 1016.74 290.154C1021.49 286.892 1025.73 285.273 1029.45 285.297Z" fill="#4988C4"/>
</mask>
<g mask="url(#mask0_4_470)">
<path d="M329.005 289.123C330.283 290.706 331.188 294.65 331.72 300.953C332.395 307.257 332.691 316.852 332.607 329.738L332.269 381.71L295.545 381.471L295.88 329.929C295.884 329.356 295.902 326.564 295.935 321.553C295.968 316.399 295.631 313.247 294.922 312.097C294.496 311.521 293.425 311.085 291.709 310.787C290.136 310.491 288.276 310.335 286.128 310.321L282.476 310.512C278.466 310.63 274.308 311.533 270.002 313.223L269.559 381.302L232.835 381.064L233.456 285.496L204.464 285.307L203.843 380.876L165.186 380.624L165.807 285.056L131.23 284.832L131.405 257.986L233.631 258.651L233.672 252.208L270.406 250.943L270.243 276.07C270.176 286.378 269.773 293.248 269.035 296.68L269.249 296.896C279.056 285.935 290.76 280.499 304.362 280.587C309.516 280.62 314.308 281.367 318.737 282.828C323.309 284.29 326.732 286.388 329.005 289.123Z" fill="#4988C4"/>
<path d="M409.396 356.438C412.976 356.462 419.636 356.147 429.376 355.494C430.665 355.503 433.028 355.375 436.466 355.111L439.544 377.252C428.486 382.335 414.152 384.819 396.541 384.705C380.076 384.598 367.433 380.363 358.61 372.002C349.93 363.641 345.645 351.085 345.754 334.333C345.809 325.743 346.937 317.446 349.137 309.442C351.48 301.439 354.093 295.872 356.977 292.741C360.004 289.611 365.606 286.927 373.781 284.689C381.957 282.451 390.054 281.358 398.072 281.41C410.957 281.494 420.606 283.848 427.02 288.471C433.433 293.095 437.615 299.493 439.566 307.667C441.519 315.698 442.451 326.514 442.362 340.115C432.623 340.625 423.1 340.849 413.793 340.789L383.298 340.591C383.268 345.172 384.176 348.615 386.022 350.917C388.012 353.221 390.794 354.743 394.369 355.482C397.944 356.078 402.954 356.397 409.396 356.438ZM385.664 306.887C384.802 307.311 384.146 309.168 383.695 312.459C383.244 315.749 382.934 319.469 382.763 323.621L393.931 323.693C400.66 323.737 405.529 323.697 408.536 323.573C408.581 316.701 407.61 311.826 405.624 308.95C403.782 306.074 400.498 304.621 395.773 304.591C391.908 304.565 388.538 305.331 385.664 306.887Z" fill="#4988C4"/>
<path d="M561.403 383.198L513.082 382.884L482.308 260.266L523.542 260.534L539.279 350.624L540.353 350.631L558.333 260.76L598.708 261.022L615.948 351.122L616.593 351.127L633.714 261.249L673.23 261.506L640.865 383.714L592.758 383.402L578.663 305.134L577.374 305.126L561.403 383.198Z" fill="#4988C4"/>
<path d="M735.958 384.332L732.61 370.78C725.954 381.475 716.756 386.785 705.016 386.708C695.423 386.646 687.566 383.946 681.444 378.609C675.466 373.129 672.509 365.521 672.572 355.786C672.611 349.772 674.363 344.558 677.828 340.142C681.437 335.583 686.326 332.394 692.495 330.572C700.527 328.334 712.92 327.125 729.673 326.948C729.734 317.498 729.338 312.485 728.482 311.906C727.77 311.329 725.481 311.028 721.615 311.003C719.182 310.987 715.816 311.108 711.519 311.367C704.645 311.608 695.333 312.335 683.585 313.548C682.49 305.809 681.685 297.499 681.169 288.619C688.768 287.093 696.722 285.856 705.033 284.908C713.344 283.816 720.793 283.292 727.379 283.335C738.833 283.409 747.411 285.398 753.113 289.301C758.815 293.06 762.506 298.024 764.184 304.192C765.862 310.359 766.599 318.167 766.394 327.616L765.974 359.184L766.454 384.53L735.958 384.332ZM717.628 362.736C721.351 362.76 725.293 362.07 729.454 360.665L729.557 344.773L727.839 344.762C717.244 344.693 711.371 345.228 710.218 346.366C709.497 347.077 708.918 348.147 708.479 349.576C708.183 351.006 708.031 352.365 708.023 353.653C708 357.09 708.772 359.457 710.339 360.756C711.906 362.055 714.335 362.715 717.628 362.736Z" fill="#4988C4"/>
<path d="M828.399 344.341C828.383 346.918 828.436 349.639 828.561 352.504C828.687 355.225 829.105 356.946 829.816 357.666C830.812 358.675 834.316 359.199 840.33 359.238L847.633 359.071C848.877 365.951 849.469 373.902 849.411 382.921C846.684 383.906 842.669 384.811 837.366 385.635C832.206 386.461 827.264 386.858 822.539 386.828C812.66 386.763 805.015 384.566 799.602 380.235C794.333 375.763 791.729 368.945 791.788 359.782L792.131 306.951L776.024 306.846L776.151 287.303L792.268 285.904L802.086 262.343L828.941 261.014L828.777 286.141L851.542 286.289L851.405 307.336L828.641 307.188L828.399 344.341Z" fill="#4988C4"/>
<path d="M921.969 359.768C925.548 359.791 932.208 359.477 941.948 358.824C943.237 358.832 945.6 358.705 949.038 358.441L952.116 380.582C941.058 385.664 926.724 388.149 909.114 388.034C892.649 387.927 880.005 383.693 871.182 375.331C862.502 366.97 858.217 354.414 858.326 337.663C858.382 329.073 859.509 320.776 861.709 312.772C864.052 304.769 866.665 299.202 869.549 296.071C872.576 292.94 878.178 290.256 886.354 288.019C894.529 285.781 902.626 284.688 910.644 284.74C923.529 284.824 933.179 287.177 939.592 291.801C946.005 296.424 950.187 302.823 952.138 310.997C954.091 319.027 955.023 329.844 954.935 343.445C945.195 343.955 935.672 344.179 926.366 344.119L895.87 343.92C895.84 348.502 896.748 351.944 898.595 354.247C900.584 356.551 903.366 358.072 906.941 358.811C910.517 359.407 915.526 359.726 921.969 359.768ZM898.236 310.217C897.375 310.641 896.718 312.498 896.267 315.788C895.816 319.078 895.506 322.799 895.336 326.95L906.503 327.023C913.232 327.066 918.101 327.027 921.108 326.903C921.153 320.031 920.182 315.156 918.197 312.28C916.354 309.404 913.07 307.951 908.346 307.92C904.48 307.895 901.11 308.661 898.236 310.217Z" fill="#4988C4"/>
<path d="M1029.45 285.297C1031.31 285.309 1033.24 285.536 1035.24 285.979C1037.39 286.423 1038.96 286.934 1039.96 287.513C1039.94 290.663 1039.54 295.886 1038.78 303.184C1038.02 310.338 1037.34 315.416 1036.75 318.419C1035.32 318.267 1032.67 318.178 1028.8 318.153C1019.78 318.094 1011.76 318.543 1004.74 319.5L1004.31 386.075L967.585 385.837L968.227 287.047L998.938 287.247L1003.13 303.167L1003.34 303.168C1007.53 297.755 1012 293.417 1016.74 290.154C1021.49 286.892 1025.73 285.273 1029.45 285.297Z" fill="#4988C4"/>
<path d="M166.943 323.82C138.543 325.544 100.828 250.986 100.828 250.986H472.284C472.284 250.986 437.272 325.714 410.348 323.82C384.934 322.032 354.112 279.863 354.112 279.863C336.615 304.141 322.399 318.342 298.091 323.82C268.707 330.442 252.504 304.141 230.155 279.863C230.155 279.863 193.87 322.186 166.943 323.82Z" fill="#1C4D8D"/>
<path d="M523.206 323.82C494.805 325.544 457.09 250.986 457.09 250.986H828.546C828.546 250.986 793.534 325.714 766.611 323.82C741.196 322.032 710.374 279.863 710.374 279.863C692.877 304.141 678.661 318.342 654.353 323.82C624.969 330.442 608.766 304.141 586.418 279.863C586.418 279.863 550.132 322.186 523.206 323.82Z" fill="#1C4D8D"/>
<path d="M879.468 323.82C851.067 325.544 813.352 250.986 813.352 250.986H1184.81C1184.81 250.986 1149.8 325.714 1122.87 323.82C1097.46 322.032 1066.64 279.863 1066.64 279.863C1049.14 304.141 1034.92 318.342 1010.62 323.82C981.232 330.442 965.028 304.141 942.68 279.863C942.68 279.863 906.394 322.186 879.468 323.82Z" fill="#1C4D8D"/>
</g>
<mask id="mask1_4_470" style="mask-type:alpha" maskUnits="userSpaceOnUse" x="0" y="0" width="552" height="218">
<path d="M65.9706 57.4997C65.937 62.6706 68.496 66.7503 73.6478 69.7387C79.0457 72.7287 87.3969 75.9841 98.7014 79.505C112.215 84.0252 123.268 88.4063 131.859 92.6483C140.696 96.8918 148.287 103.467 154.632 112.373C161.223 121.28 164.472 132.875 164.379 147.157C164.081 192.956 134.138 215.663 74.5492 215.276C64.6998 215.212 52.6399 214.271 38.3695 212.455C24.3453 210.64 11.5554 208.341 0 205.557C0.52606 200.389 1.55979 192.886 3.10118 183.046C4.8904 172.961 6.53972 165.462 8.04912 160.546C16.6593 161.834 29.5771 163.395 46.8023 165.231C64.2738 167.068 77.4418 168.015 86.3063 168.073C91.4772 168.106 94.5575 167.757 95.5473 167.025C97.0311 166.049 98.1495 164.456 98.9026 162.245C99.9036 159.789 100.41 157.699 100.421 155.975C100.453 151.051 98.1376 147.342 93.4751 144.849C88.8142 142.11 80.8324 138.857 69.5296 135.09C56.0138 130.816 44.8381 126.434 36.0025 121.944C27.1668 117.455 19.4552 110.51 12.8676 101.109C6.28007 91.7094 3.03588 79.376 3.13505 64.1095C3.20543 53.2751 5.73656 42.703 10.7284 32.3931C15.7219 21.837 20.8161 14.729 26.011 11.0691C29.9684 8.38607 38.111 5.85339 50.4387 3.47102C62.7664 1.08864 74.3475 -0.0673505 85.1818 0.00302924C112.76 0.182178 135.274 2.91401 152.723 8.19851C152.445 13.1216 151.539 19.8875 150.005 28.4961C148.718 37.1063 147.313 44.977 145.789 52.1083L137.296 51.6837C105.3 49.2597 84.8699 48.0188 76.0054 47.9613C72.3119 47.9373 70.2181 48.0468 69.7241 48.2898C68.7359 48.7759 67.8669 49.8784 67.117 51.5972C66.3671 53.3161 65.9849 55.2835 65.9706 57.4997Z" fill="#4988C4"/>
<path d="M256.005 212.391L252.046 196.367C244.176 209.013 233.301 215.291 219.42 215.201C208.077 215.127 198.787 211.935 191.549 205.624C184.48 199.145 180.984 190.15 181.058 178.638C181.105 171.528 183.176 165.363 187.273 160.141C191.54 154.752 197.321 150.98 204.614 148.827C214.112 146.18 228.765 144.751 248.574 144.541C248.646 133.368 248.177 127.44 247.166 126.756C246.324 126.074 243.617 125.718 239.046 125.688C236.169 125.669 232.189 125.813 227.109 126.118C218.981 126.404 207.971 127.264 194.08 128.697C192.785 119.547 191.833 109.722 191.224 99.2215C200.208 97.4177 209.613 95.9552 219.44 94.8339C229.267 93.5434 238.074 92.9235 245.861 92.9741C259.404 93.062 269.546 95.4134 276.288 100.028C283.031 104.473 287.395 110.342 289.379 117.635C291.363 124.927 292.234 134.159 291.992 145.331L291.496 182.657L292.063 212.625L256.005 212.391ZM234.332 186.857C238.734 186.885 243.394 186.069 248.315 184.408L248.437 165.617L246.405 165.604C233.878 165.523 226.933 166.155 225.57 167.5C224.718 168.341 224.033 169.606 223.514 171.296C223.164 172.987 222.985 174.594 222.975 176.117C222.948 180.18 223.861 182.979 225.713 184.515C227.566 186.051 230.439 186.831 234.332 186.857Z" fill="#4988C4"/>
<path d="M387.083 96.4308L432.536 96.7261L396.227 213.302L336.046 212.911L301.255 95.8733L346.708 96.1685L365.17 185.929L367.71 185.945L387.083 96.4308Z" fill="#4988C4"/>
<path d="M512.889 183.587C517.121 183.615 524.995 183.243 536.512 182.471C538.036 182.481 540.83 182.33 544.895 182.018L548.534 208.197C535.46 214.207 518.511 217.144 497.689 217.008C478.221 216.882 463.271 211.875 452.84 201.989C442.577 192.103 437.51 177.257 437.639 157.451C437.705 147.293 439.038 137.483 441.639 128.02C444.409 118.557 447.499 111.975 450.909 108.273C454.488 104.572 461.111 101.398 470.778 98.7521C480.445 96.1062 490.018 94.814 499.498 94.8756C514.734 94.9746 526.143 97.7574 533.726 103.224C541.308 108.691 546.253 116.256 548.561 125.921C550.869 135.416 551.971 148.205 551.867 164.287C540.351 164.89 529.091 165.155 518.088 165.084L482.03 164.849C481.995 170.266 483.069 174.336 485.252 177.059C487.604 179.783 490.894 181.582 495.12 182.456C499.348 183.161 505.271 183.538 512.889 183.587ZM484.828 124.999C483.809 125.5 483.033 127.696 482.5 131.586C481.967 135.477 481.599 139.876 481.398 144.784L494.603 144.87C502.559 144.921 508.315 144.874 511.871 144.728C511.924 136.602 510.777 130.839 508.429 127.438C506.25 124.038 502.367 122.32 496.781 122.283C492.21 122.254 488.226 123.159 484.828 124.999Z" fill="#4988C4"/>
</mask>
<g mask="url(#mask1_4_470)">
<path d="M65.9706 57.4997C65.937 62.6706 68.496 66.7503 73.6478 69.7387C79.0457 72.7287 87.3969 75.9841 98.7014 79.505C112.215 84.0252 123.268 88.4063 131.859 92.6483C140.696 96.8918 148.287 103.467 154.632 112.373C161.223 121.28 164.472 132.875 164.379 147.157C164.081 192.956 134.138 215.663 74.5492 215.276C64.6998 215.212 52.6399 214.271 38.3695 212.455C24.3453 210.64 11.5554 208.341 0 205.557C0.52606 200.389 1.55979 192.886 3.10118 183.046C4.8904 172.961 6.53972 165.462 8.04912 160.546C16.6593 161.834 29.5771 163.395 46.8023 165.231C64.2738 167.068 77.4418 168.015 86.3063 168.073C91.4772 168.106 94.5575 167.757 95.5473 167.025C97.0311 166.049 98.1495 164.456 98.9026 162.245C99.9036 159.789 100.41 157.699 100.421 155.975C100.453 151.051 98.1376 147.342 93.4751 144.849C88.8142 142.11 80.8324 138.857 69.5296 135.09C56.0138 130.816 44.8381 126.434 36.0025 121.944C27.1668 117.455 19.4552 110.51 12.8676 101.109C6.28007 91.7094 3.03588 79.376 3.13505 64.1095C3.20543 53.2751 5.73656 42.703 10.7284 32.3931C15.7219 21.837 20.8161 14.729 26.011 11.0691C29.9684 8.38607 38.111 5.85339 50.4387 3.47102C62.7664 1.08864 74.3475 -0.0673505 85.1818 0.00302924C112.76 0.182178 135.274 2.91401 152.723 8.19851C152.445 13.1216 151.539 19.8875 150.005 28.4961C148.718 37.1063 147.313 44.977 145.789 52.1083L137.296 51.6837C105.3 49.2597 84.8699 48.0188 76.0054 47.9613C72.3119 47.9373 70.2181 48.0468 69.7241 48.2898C68.7359 48.7759 67.8669 49.8784 67.117 51.5972C66.3671 53.3161 65.9849 55.2835 65.9706 57.4997Z" fill="#4988C4"/>
<path d="M256.005 212.391L252.046 196.367C244.176 209.013 233.301 215.291 219.42 215.201C208.077 215.127 198.787 211.935 191.549 205.624C184.48 199.145 180.984 190.15 181.058 178.638C181.105 171.528 183.176 165.363 187.273 160.141C191.54 154.752 197.321 150.98 204.614 148.827C214.112 146.18 228.765 144.751 248.574 144.541C248.646 133.368 248.177 127.44 247.166 126.756C246.324 126.074 243.617 125.718 239.046 125.688C236.169 125.669 232.189 125.813 227.109 126.118C218.981 126.404 207.971 127.264 194.08 128.697C192.785 119.547 191.833 109.722 191.224 99.2215C200.208 97.4177 209.613 95.9552 219.44 94.8339C229.267 93.5434 238.074 92.9235 245.861 92.9741C259.404 93.062 269.546 95.4134 276.288 100.028C283.031 104.473 287.395 110.342 289.379 117.635C291.363 124.927 292.234 134.159 291.992 145.331L291.496 182.657L292.063 212.625L256.005 212.391ZM234.332 186.857C238.734 186.885 243.394 186.069 248.315 184.408L248.437 165.617L246.405 165.604C233.878 165.523 226.933 166.155 225.57 167.5C224.718 168.341 224.033 169.606 223.514 171.296C223.164 172.987 222.985 174.594 222.975 176.117C222.948 180.18 223.861 182.979 225.713 184.515C227.566 186.051 230.439 186.831 234.332 186.857Z" fill="#4988C4"/>
<path d="M387.083 96.4308L432.536 96.7261L396.227 213.302L336.046 212.911L301.255 95.8733L346.708 96.1685L365.17 185.929L367.71 185.945L387.083 96.4308Z" fill="#4988C4"/>
<path d="M512.889 183.587C517.121 183.615 524.995 183.243 536.512 182.471C538.036 182.481 540.83 182.33 544.895 182.018L548.534 208.197C535.46 214.207 518.511 217.144 497.689 217.008C478.221 216.882 463.271 211.875 452.84 201.989C442.577 192.103 437.51 177.257 437.639 157.451C437.705 147.293 439.038 137.483 441.639 128.02C444.409 118.557 447.499 111.975 450.909 108.273C454.488 104.572 461.111 101.398 470.778 98.7521C480.445 96.1062 490.018 94.814 499.498 94.8756C514.734 94.9746 526.143 97.7574 533.726 103.224C541.308 108.691 546.253 116.256 548.561 125.921C550.869 135.416 551.971 148.205 551.867 164.287C540.351 164.89 529.091 165.155 518.088 165.084L482.03 164.849C481.995 170.266 483.069 174.336 485.252 177.059C487.604 179.783 490.894 181.582 495.12 182.456C499.348 183.161 505.271 183.538 512.889 183.587ZM484.828 124.999C483.809 125.5 483.033 127.696 482.5 131.586C481.967 135.477 481.599 139.876 481.398 144.784L494.603 144.87C502.559 144.921 508.315 144.874 511.871 144.728C511.924 136.602 510.777 130.839 508.429 127.438C506.25 124.038 502.367 122.32 496.781 122.283C492.21 122.254 488.226 123.159 484.828 124.999Z" fill="#4988C4"/>
<path d="M233.909 147.353C197.898 148.682 150.076 91.1918 150.076 91.1918H621.076C621.076 91.1918 576.681 148.813 542.543 147.353C510.318 145.974 471.236 113.458 471.236 113.458C449.05 132.178 431.024 143.129 400.202 147.353C362.944 152.459 342.398 132.178 314.061 113.458C314.061 113.458 268.051 146.092 233.909 147.353Z" fill="#1C4D8D" stroke="black" stroke-width="0.523915"/>
<path d="M-79.392 56.1913C-115.404 57.5207 -163.226 0.0305138 -163.226 0.0305138H307.774C307.774 0.0305138 263.38 57.6518 229.241 56.1913C197.016 54.8127 157.934 22.2969 157.934 22.2969C135.749 41.0172 117.723 51.9674 86.901 56.1913C49.6425 61.2973 29.0971 41.0172 0.759857 22.2969C0.759857 22.2969 -45.25 54.9309 -79.392 56.1913Z" fill="#1C4D8D" stroke="black" stroke-width="0.523915"/>
</g>
</svg>
