<svg width="1440" height="68" viewBox="0 0 1440 68" fill="none" xmlns="http://www.w3.org/2000/svg">
<path d="M482.212 21.1307C545.384 19.7047 627.783 121.701 627.783 121.701L-198 109.867C-198 109.867 -118.717 9.95764 -58.901 13.376C-2.43691 16.6028 65.2669 74.5932 65.2669 74.5932C104.634 42.3292 136.514 23.5836 190.658 16.9524C256.11 8.93644 291.622 45.009 340.834 78.5424C340.834 78.5424 422.321 22.4826 482.212 21.1307Z" fill="#1C4D8D"/>
<path d="M1172.21 11.1307C1235.38 9.70474 1317.78 111.701 1317.78 111.701L492 99.8671C492 99.8671 571.283 -0.0423641 631.099 3.376C687.563 6.60279 755.267 64.5932 755.267 64.5932C794.634 32.3292 826.514 13.5836 880.658 6.95244C946.11 -1.06356 981.622 35.009 1030.83 68.5424C1030.83 68.5424 1112.32 12.4826 1172.21 11.1307Z" fill="#1C4D8D"/>
<path d="M931.212 33.1307C994.384 31.7047 1076.78 133.701 1076.78 133.701L251 121.867C251 121.867 330.283 21.9576 390.099 25.376C446.563 28.6028 514.267 86.5932 514.267 86.5932C553.634 54.3292 585.514 35.5836 639.658 28.9524C705.11 20.9364 740.622 57.009 789.834 90.5424C789.834 90.5424 871.321 34.4826 931.212 33.1307Z" fill="#1C4D8D"/>
<path d="M1621.21 23.1307C1684.38 21.7047 1766.78 123.701 1766.78 123.701L941 111.867C941 111.867 1020.28 11.9576 1080.1 15.376C1136.56 18.6028 1204.27 76.5932 1204.27 76.5932C1243.63 44.3292 1275.51 25.5836 1329.66 18.9524C1395.11 10.9364 1430.62 47.009 1479.83 80.5424C1479.83 80.5424 1561.32 24.4826 1621.21 23.1307Z" fill="#1C4D8D"/>
</svg>
