<svg width="989" height="79" viewBox="0 0 989 79" fill="none" xmlns="http://www.w3.org/2000/svg">
<mask id="mask0_4_1011" style="mask-type:alpha" maskUnits="userSpaceOnUse" x="0" y="0" width="989" height="79">
<path d="M44.64 77.28H17.64L0 8.88H23.04L32.16 59.16H32.76L42.48 8.88H65.04L75 59.16H75.36L84.6 8.88H106.68L89.04 77.28H62.16L54 33.6H53.28L44.64 77.28Z" fill="#BDE8F5"/>
<path d="M166.679 25.56C167.399 26.44 167.919 28.64 168.239 32.16C168.639 35.68 168.839 41.04 168.839 48.24V77.28H148.319V48.48C148.319 48.16 148.319 46.6 148.319 43.8C148.319 40.92 148.119 39.16 147.719 38.52C147.479 38.2 146.879 37.96 145.919 37.8C145.039 37.64 143.999 37.56 142.799 37.56L140.759 37.68C138.519 37.76 136.199 38.28 133.799 39.24V77.28H113.279V5.28L133.799 4.44V18.48C133.799 24.24 133.599 28.08 133.199 30L133.319 30.12C138.759 23.96 145.279 20.88 152.879 20.88C155.759 20.88 158.439 21.28 160.919 22.08C163.479 22.88 165.399 24.04 166.679 25.56Z" fill="#BDE8F5"/>
<path d="M211.198 77.28L209.278 69.72C205.598 75.72 200.478 78.72 193.918 78.72C188.558 78.72 184.158 77.24 180.718 74.28C177.358 71.24 175.678 67 175.678 61.56C175.678 58.2 176.638 55.28 178.558 52.8C180.558 50.24 183.278 48.44 186.718 47.4C191.198 46.12 198.118 45.4 207.478 45.24C207.478 39.96 207.238 37.16 206.758 36.84C206.358 36.52 205.078 36.36 202.918 36.36C201.558 36.36 199.678 36.44 197.278 36.6C193.438 36.76 188.238 37.2 181.678 37.92C181.038 33.6 180.558 28.96 180.238 24C184.478 23.12 188.918 22.4 193.558 21.84C198.198 21.2 202.358 20.88 206.038 20.88C212.438 20.88 217.238 21.96 220.438 24.12C223.638 26.2 225.718 28.96 226.678 32.4C227.638 35.84 228.078 40.2 227.998 45.48L227.878 63.12L228.238 77.28H211.198ZM200.878 65.28C202.958 65.28 205.158 64.88 207.478 64.08V55.2H206.518C200.598 55.2 197.318 55.52 196.678 56.16C196.278 56.56 195.958 57.16 195.718 57.96C195.558 58.76 195.478 59.52 195.478 60.24C195.478 62.16 195.918 63.48 196.798 64.2C197.678 64.92 199.038 65.28 200.878 65.28Z" fill="#BDE8F5"/>
<path d="M262.703 54.6C262.703 56.04 262.743 57.56 262.823 59.16C262.903 60.68 263.143 61.64 263.543 62.04C264.103 62.6 266.063 62.88 269.423 62.88L273.503 62.76C274.223 66.6 274.583 71.04 274.583 76.08C273.063 76.64 270.823 77.16 267.863 77.64C264.983 78.12 262.223 78.36 259.583 78.36C254.063 78.36 249.783 77.16 246.743 74.76C243.783 72.28 242.303 68.48 242.303 63.36V33.84H233.303V22.92L242.303 22.08L247.703 8.88L262.703 8.04V22.08H275.423V33.84H262.703V54.6Z" fill="#BDE8F5"/>
<path d="M344.247 58.56C344.247 65.68 341.967 70.8 337.407 73.92C332.927 77.04 326.527 78.6 318.207 78.6C312.367 78.6 305.647 77.76 298.047 76.08C298.207 74.48 298.567 72.2 299.127 69.24C299.767 66.2 300.287 63.88 300.687 62.28C303.567 62.76 306.767 63.16 310.287 63.48C313.807 63.72 316.807 63.84 319.287 63.84C321.447 63.84 322.767 63.72 323.247 63.48C323.327 63.4 323.407 63.2 323.487 62.88C323.647 62.48 323.727 62.08 323.727 61.68C323.727 60.08 322.727 59 320.727 58.44C320.087 58.28 317.647 57.6 313.407 56.4C309.167 55.2 305.687 53.04 302.967 49.92C300.327 46.72 299.007 42.76 299.007 38.04C299.007 35.56 299.567 32.8 300.687 29.76C301.807 26.72 303.007 24.8 304.287 24C305.247 23.36 307.567 22.72 311.247 22.08C314.927 21.36 318.327 21 321.447 21C328.087 21 334.767 21.48 341.487 22.44C341.487 23.88 341.287 26.32 340.887 29.76C340.487 33.12 340.127 35.24 339.807 36.12C333.007 35.24 327.527 34.8 323.367 34.8C321.207 34.8 319.807 34.92 319.167 35.16C319.007 35.24 318.847 35.48 318.687 35.88C318.527 36.2 318.447 36.64 318.447 37.2C318.447 38.32 318.807 39.12 319.527 39.6C320.247 40.16 322.127 40.84 325.167 41.64C328.767 42.68 331.847 43.76 334.407 44.88C337.047 46 339.327 47.68 341.247 49.92C343.247 52.16 344.247 55.04 344.247 58.56Z" fill="#BDE8F5"/>
<path d="M404.453 25.56C405.173 26.44 405.693 28.64 406.013 32.16C406.413 35.68 406.612 41.04 406.612 48.24V77.28H386.092V48.48C386.092 48.16 386.092 46.6 386.092 43.8C386.092 40.92 385.892 39.16 385.492 38.52C385.253 38.2 384.652 37.96 383.693 37.8C382.812 37.64 381.773 37.56 380.573 37.56L378.533 37.68C376.293 37.76 373.973 38.28 371.573 39.24V77.28H351.052V5.28L371.573 4.44V18.48C371.573 24.24 371.372 28.08 370.973 30L371.092 30.12C376.533 23.96 383.052 20.88 390.652 20.88C393.533 20.88 396.212 21.28 398.693 22.08C401.253 22.88 403.173 24.04 404.453 25.56Z" fill="#BDE8F5"/>
<path d="M442.732 78.84C433.132 78.84 425.932 76.6 421.132 72.12C416.412 67.56 414.052 60.4 414.052 50.64C414.052 45.28 414.532 40.6 415.492 36.6C416.532 32.52 417.772 29.68 419.212 28.08C421.052 26 424.412 24.28 429.292 22.92C434.252 21.56 438.892 20.88 443.212 20.88C453.532 20.88 460.892 23.08 465.292 27.48C469.692 31.88 471.892 38.92 471.892 48.6C471.892 59 469.532 66.64 464.812 71.52C460.092 76.4 452.732 78.84 442.732 78.84ZM443.092 64.8C446.212 64.8 448.252 63.72 449.212 61.56C450.172 59.32 450.652 55.4 450.652 49.8C450.652 45.88 450.452 42.88 450.052 40.8C449.652 38.64 448.892 37.08 447.772 36.12C446.732 35.08 445.092 34.56 442.852 34.56C439.652 34.56 437.812 34.84 437.332 35.4C436.692 35.96 436.172 37.72 435.772 40.68C435.372 43.64 435.172 46.72 435.172 49.92C435.172 55.36 435.692 59.2 436.732 61.44C437.852 63.68 439.972 64.8 443.092 64.8Z" fill="#BDE8F5"/>
<path d="M534.924 22.08V77.28H518.244L515.964 68.04C510.204 75 503.324 78.48 495.324 78.48C492.444 78.48 489.724 78.08 487.164 77.28C484.684 76.48 482.804 75.32 481.524 73.8C480.804 72.92 480.244 70.72 479.844 67.2C479.524 63.68 479.364 58.32 479.364 51.12V22.08H499.884V50.88C499.884 52.48 499.924 54.36 500.004 56.52C500.084 58.68 500.324 60.04 500.724 60.6C501.284 61.4 502.884 61.8 505.524 61.8L507.444 61.68C509.684 61.6 512.004 61.08 514.404 60.12V22.08H534.924Z" fill="#BDE8F5"/>
<path d="M545.123 5.28L565.643 4.44V77.28H545.123V5.28Z" fill="#BDE8F5"/>
<path d="M630.778 4.44V77.28H613.858L612.178 68.04C610.578 71.16 608.218 73.64 605.098 75.48C601.978 77.32 598.458 78.24 594.538 78.24C588.298 78.24 583.298 76 579.538 71.52C575.858 67.04 574.018 60.32 574.018 51.36C574.018 44.56 574.818 38.96 576.418 34.56C578.018 30.16 579.898 27 582.058 25.08C583.418 23.88 586.178 22.88 590.338 22.08C594.578 21.28 598.338 20.88 601.618 20.88C604.498 20.88 607.458 21.16 610.498 21.72C610.258 17.88 610.138 15.76 610.138 15.36V5.28L630.778 4.44ZM603.538 62.16C605.698 62.16 607.938 61.8 610.258 61.08V35.04C607.938 34.72 605.378 34.56 602.578 34.56C600.178 34.56 598.658 34.76 598.018 35.16C597.138 35.8 596.418 37.64 595.858 40.68C595.378 43.64 595.138 46.76 595.138 50.04C595.138 54.92 595.858 58.16 597.298 59.76C598.818 61.36 600.898 62.16 603.538 62.16Z" fill="#BDE8F5"/>
<path d="M692.63 77.28H666.71L654.47 22.08H675.47L680.87 63.12H681.23L687.35 22.08H709.55L716.03 63H716.51L721.55 22.08H742.67L730.43 77.28H704.39L698.63 43.92H698.27L692.63 77.28Z" fill="#BDE8F5"/>
<path d="M781.798 62.88C783.798 62.88 787.518 62.68 792.958 62.28C793.678 62.28 794.998 62.2 796.918 62.04L798.718 74.4C792.558 77.28 784.558 78.72 774.718 78.72C765.518 78.72 758.438 76.4 753.478 71.76C748.598 67.12 746.158 60.12 746.158 50.76C746.158 45.96 746.758 41.32 747.958 36.84C749.238 32.36 750.678 29.24 752.278 27.48C753.958 25.72 757.078 24.2 761.638 22.92C766.198 21.64 770.718 21 775.198 21C782.398 21 787.798 22.28 791.398 24.84C794.998 27.4 797.358 30.96 798.478 35.52C799.598 40 800.158 46.04 800.158 53.64C794.718 53.96 789.398 54.12 784.198 54.12H767.158C767.158 56.68 767.678 58.6 768.718 59.88C769.838 61.16 771.398 62 773.398 62.4C775.398 62.72 778.198 62.88 781.798 62.88ZM768.358 35.28C767.878 35.52 767.518 36.56 767.278 38.4C767.038 40.24 766.878 42.32 766.798 44.64H773.038C776.798 44.64 779.518 44.6 781.198 44.52C781.198 40.68 780.638 37.96 779.518 36.36C778.478 34.76 776.638 33.96 773.998 33.96C771.838 33.96 769.958 34.4 768.358 35.28Z" fill="#BDE8F5"/>
<path d="M880.388 4.44V77.28H863.468L861.787 68.04C860.188 71.16 857.828 73.64 854.708 75.48C851.588 77.32 848.068 78.24 844.148 78.24C837.908 78.24 832.908 76 829.148 71.52C825.468 67.04 823.628 60.32 823.628 51.36C823.628 44.56 824.428 38.96 826.028 34.56C827.628 30.16 829.508 27 831.667 25.08C833.027 23.88 835.788 22.88 839.948 22.08C844.188 21.28 847.947 20.88 851.227 20.88C854.107 20.88 857.068 21.16 860.107 21.72C859.867 17.88 859.747 15.76 859.747 15.36V5.28L880.388 4.44ZM853.148 62.16C855.307 62.16 857.547 61.8 859.867 61.08V35.04C857.547 34.72 854.987 34.56 852.188 34.56C849.787 34.56 848.268 34.76 847.628 35.16C846.747 35.8 846.028 37.64 845.468 40.68C844.988 43.64 844.747 46.76 844.747 50.04C844.747 54.92 845.468 58.16 846.908 59.76C848.428 61.36 850.508 62.16 853.148 62.16Z" fill="#BDE8F5"/>
<path d="M916.872 78.84C907.272 78.84 900.072 76.6 895.272 72.12C890.552 67.56 888.192 60.4 888.192 50.64C888.192 45.28 888.672 40.6 889.632 36.6C890.672 32.52 891.912 29.68 893.352 28.08C895.192 26 898.552 24.28 903.432 22.92C908.392 21.56 913.032 20.88 917.352 20.88C927.672 20.88 935.032 23.08 939.432 27.48C943.832 31.88 946.032 38.92 946.032 48.6C946.032 59 943.672 66.64 938.952 71.52C934.232 76.4 926.872 78.84 916.872 78.84ZM917.232 64.8C920.352 64.8 922.392 63.72 923.352 61.56C924.312 59.32 924.792 55.4 924.792 49.8C924.792 45.88 924.592 42.88 924.192 40.8C923.792 38.64 923.032 37.08 921.912 36.12C920.872 35.08 919.232 34.56 916.992 34.56C913.792 34.56 911.952 34.84 911.472 35.4C910.832 35.96 910.312 37.72 909.912 40.68C909.512 43.64 909.312 46.72 909.312 49.92C909.312 55.36 909.832 59.2 910.872 61.44C911.992 63.68 914.112 64.8 917.232 64.8Z" fill="#BDE8F5"/>
<path d="M971.505 53.16C965.505 53.08 960.185 51.96 955.545 49.8C955.545 46.2 955.345 42.16 954.945 37.68C954.625 33.12 954.025 28.84 953.145 24.84L954.105 24.36C958.505 25.24 962.625 25.68 966.465 25.68C969.585 25.68 972.065 25.4 973.905 24.84C975.745 24.2 976.665 23.28 976.665 22.08C976.665 20.88 975.585 20 973.425 19.44C971.345 18.88 968.585 18.6 965.145 18.6C963.145 18.6 960.225 18.76 956.385 19.08L953.745 4.44C955.585 2.68 957.385 1.52 959.145 0.960002C960.985 0.320001 962.945 0 965.025 0C969.905 0 974.065 1.12 977.505 3.36C981.025 5.6 983.665 8.52 985.425 12.12C987.185 15.72 988.065 19.48 988.065 23.4C988.065 29.48 986.665 34.28 983.865 37.8C981.145 41.24 977.185 43.32 971.985 44.04L972.105 52.56L971.505 53.16ZM964.185 78C961.385 78 959.145 77.16 957.465 75.48C955.785 73.72 954.945 71.36 954.945 68.4C954.945 65.84 955.785 63.68 957.465 61.92C959.225 60.16 961.385 59.28 963.945 59.28C966.585 59.28 968.785 60.16 970.545 61.92C972.385 63.68 973.305 65.84 973.305 68.4C973.305 71.36 972.425 73.72 970.665 75.48C968.985 77.16 966.825 78 964.185 78Z" fill="#BDE8F5"/>
</mask>
<g mask="url(#mask0_4_1011)">
<path d="M44.64 77.28H17.64L0 8.88H23.04L32.16 59.16H32.76L42.48 8.88H65.04L75 59.16H75.36L84.6 8.88H106.68L89.04 77.28H62.16L54 33.6H53.28L44.64 77.28Z" fill="#BDE8F5"/>
<path d="M166.679 25.56C167.399 26.44 167.919 28.64 168.239 32.16C168.639 35.68 168.839 41.04 168.839 48.24V77.28H148.319V48.48C148.319 48.16 148.319 46.6 148.319 43.8C148.319 40.92 148.119 39.16 147.719 38.52C147.479 38.2 146.879 37.96 145.919 37.8C145.039 37.64 143.999 37.56 142.799 37.56L140.759 37.68C138.519 37.76 136.199 38.28 133.799 39.24V77.28H113.279V5.28L133.799 4.44V18.48C133.799 24.24 133.599 28.08 133.199 30L133.319 30.12C138.759 23.96 145.279 20.88 152.879 20.88C155.759 20.88 158.439 21.28 160.919 22.08C163.479 22.88 165.399 24.04 166.679 25.56Z" fill="#BDE8F5"/>
<path d="M211.198 77.28L209.278 69.72C205.598 75.72 200.478 78.72 193.918 78.72C188.558 78.72 184.158 77.24 180.718 74.28C177.358 71.24 175.678 67 175.678 61.56C175.678 58.2 176.638 55.28 178.558 52.8C180.558 50.24 183.278 48.44 186.718 47.4C191.198 46.12 198.118 45.4 207.478 45.24C207.478 39.96 207.238 37.16 206.758 36.84C206.358 36.52 205.078 36.36 202.918 36.36C201.558 36.36 199.678 36.44 197.278 36.6C193.438 36.76 188.238 37.2 181.678 37.92C181.038 33.6 180.558 28.96 180.238 24C184.478 23.12 188.918 22.4 193.558 21.84C198.198 21.2 202.358 20.88 206.038 20.88C212.438 20.88 217.238 21.96 220.438 24.12C223.638 26.2 225.718 28.96 226.678 32.4C227.638 35.84 228.078 40.2 227.998 45.48L227.878 63.12L228.238 77.28H211.198ZM200.878 65.28C202.958 65.28 205.158 64.88 207.478 64.08V55.2H206.518C200.598 55.2 197.318 55.52 196.678 56.16C196.278 56.56 195.958 57.16 195.718 57.96C195.558 58.76 195.478 59.52 195.478 60.24C195.478 62.16 195.918 63.48 196.798 64.2C197.678 64.92 199.038 65.28 200.878 65.28Z" fill="#BDE8F5"/>
<path d="M262.703 54.6C262.703 56.04 262.743 57.56 262.823 59.16C262.903 60.68 263.143 61.64 263.543 62.04C264.103 62.6 266.063 62.88 269.423 62.88L273.503 62.76C274.223 66.6 274.583 71.04 274.583 76.08C273.063 76.64 270.823 77.16 267.863 77.64C264.983 78.12 262.223 78.36 259.583 78.36C254.063 78.36 249.783 77.16 246.743 74.76C243.783 72.28 242.303 68.48 242.303 63.36V33.84H233.303V22.92L242.303 22.08L247.703 8.88L262.703 8.04V22.08H275.423V33.84H262.703V54.6Z" fill="#BDE8F5"/>
<path d="M344.247 58.56C344.247 65.68 341.967 70.8 337.407 73.92C332.927 77.04 326.527 78.6 318.207 78.6C312.367 78.6 305.647 77.76 298.047 76.08C298.207 74.48 298.567 72.2 299.127 69.24C299.767 66.2 300.287 63.88 300.687 62.28C303.567 62.76 306.767 63.16 310.287 63.48C313.807 63.72 316.807 63.84 319.287 63.84C321.447 63.84 322.767 63.72 323.247 63.48C323.327 63.4 323.407 63.2 323.487 62.88C323.647 62.48 323.727 62.08 323.727 61.68C323.727 60.08 322.727 59 320.727 58.44C320.087 58.28 317.647 57.6 313.407 56.4C309.167 55.2 305.687 53.04 302.967 49.92C300.327 46.72 299.007 42.76 299.007 38.04C299.007 35.56 299.567 32.8 300.687 29.76C301.807 26.72 303.007 24.8 304.287 24C305.247 23.36 307.567 22.72 311.247 22.08C314.927 21.36 318.327 21 321.447 21C328.087 21 334.767 21.48 341.487 22.44C341.487 23.88 341.287 26.32 340.887 29.76C340.487 33.12 340.127 35.24 339.807 36.12C333.007 35.24 327.527 34.8 323.367 34.8C321.207 34.8 319.807 34.92 319.167 35.16C319.007 35.24 318.847 35.48 318.687 35.88C318.527 36.2 318.447 36.64 318.447 37.2C318.447 38.32 318.807 39.12 319.527 39.6C320.247 40.16 322.127 40.84 325.167 41.64C328.767 42.68 331.847 43.76 334.407 44.88C337.047 46 339.327 47.68 341.247 49.92C343.247 52.16 344.247 55.04 344.247 58.56Z" fill="#BDE8F5"/>
<path d="M404.453 25.56C405.173 26.44 405.693 28.64 406.013 32.16C406.413 35.68 406.612 41.04 406.612 48.24V77.28H386.092V48.48C386.092 48.16 386.092 46.6 386.092 43.8C386.092 40.92 385.892 39.16 385.492 38.52C385.253 38.2 384.652 37.96 383.693 37.8C382.812 37.64 381.773 37.56 380.573 37.56L378.533 37.68C376.293 37.76 373.973 38.28 371.573 39.24V77.28H351.052V5.28L371.573 4.44V18.48C371.573 24.24 371.372 28.08 370.973 30L371.092 30.12C376.533 23.96 383.052 20.88 390.652 20.88C393.533 20.88 396.212 21.28 398.693 22.08C401.253 22.88 403.173 24.04 404.453 25.56Z" fill="#BDE8F5"/>
<path d="M442.732 78.84C433.132 78.84 425.932 76.6 421.132 72.12C416.412 67.56 414.052 60.4 414.052 50.64C414.052 45.28 414.532 40.6 415.492 36.6C416.532 32.52 417.772 29.68 419.212 28.08C421.052 26 424.412 24.28 429.292 22.92C434.252 21.56 438.892 20.88 443.212 20.88C453.532 20.88 460.892 23.08 465.292 27.48C469.692 31.88 471.892 38.92 471.892 48.6C471.892 59 469.532 66.64 464.812 71.52C460.092 76.4 452.732 78.84 442.732 78.84ZM443.092 64.8C446.212 64.8 448.252 63.72 449.212 61.56C450.172 59.32 450.652 55.4 450.652 49.8C450.652 45.88 450.452 42.88 450.052 40.8C449.652 38.64 448.892 37.08 447.772 36.12C446.732 35.08 445.092 34.56 442.852 34.56C439.652 34.56 437.812 34.84 437.332 35.4C436.692 35.96 436.172 37.72 435.772 40.68C435.372 43.64 435.172 46.72 435.172 49.92C435.172 55.36 435.692 59.2 436.732 61.44C437.852 63.68 439.972 64.8 443.092 64.8Z" fill="#BDE8F5"/>
<path d="M534.924 22.08V77.28H518.244L515.964 68.04C510.204 75 503.324 78.48 495.324 78.48C492.444 78.48 489.724 78.08 487.164 77.28C484.684 76.48 482.804 75.32 481.524 73.8C480.804 72.92 480.244 70.72 479.844 67.2C479.524 63.68 479.364 58.32 479.364 51.12V22.08H499.884V50.88C499.884 52.48 499.924 54.36 500.004 56.52C500.084 58.68 500.324 60.04 500.724 60.6C501.284 61.4 502.884 61.8 505.524 61.8L507.444 61.68C509.684 61.6 512.004 61.08 514.404 60.12V22.08H534.924Z" fill="#BDE8F5"/>
<path d="M545.123 5.28L565.643 4.44V77.28H545.123V5.28Z" fill="#BDE8F5"/>
<path d="M630.778 4.44V77.28H613.858L612.178 68.04C610.578 71.16 608.218 73.64 605.098 75.48C601.978 77.32 598.458 78.24 594.538 78.24C588.298 78.24 583.298 76 579.538 71.52C575.858 67.04 574.018 60.32 574.018 51.36C574.018 44.56 574.818 38.96 576.418 34.56C578.018 30.16 579.898 27 582.058 25.08C583.418 23.88 586.178 22.88 590.338 22.08C594.578 21.28 598.338 20.88 601.618 20.88C604.498 20.88 607.458 21.16 610.498 21.72C610.258 17.88 610.138 15.76 610.138 15.36V5.28L630.778 4.44ZM603.538 62.16C605.698 62.16 607.938 61.8 610.258 61.08V35.04C607.938 34.72 605.378 34.56 602.578 34.56C600.178 34.56 598.658 34.76 598.018 35.16C597.138 35.8 596.418 37.64 595.858 40.68C595.378 43.64 595.138 46.76 595.138 50.04C595.138 54.92 595.858 58.16 597.298 59.76C598.818 61.36 600.898 62.16 603.538 62.16Z" fill="#BDE8F5"/>
<path d="M692.63 77.28H666.71L654.47 22.08H675.47L680.87 63.12H681.23L687.35 22.08H709.55L716.03 63H716.51L721.55 22.08H742.67L730.43 77.28H704.39L698.63 43.92H698.27L692.63 77.28Z" fill="#BDE8F5"/>
<path d="M781.798 62.88C783.798 62.88 787.518 62.68 792.958 62.28C793.678 62.28 794.998 62.2 796.918 62.04L798.718 74.4C792.558 77.28 784.558 78.72 774.718 78.72C765.518 78.72 758.438 76.4 753.478 71.76C748.598 67.12 746.158 60.12 746.158 50.76C746.158 45.96 746.758 41.32 747.958 36.84C749.238 32.36 750.678 29.24 752.278 27.48C753.958 25.72 757.078 24.2 761.638 22.92C766.198 21.64 770.718 21 775.198 21C782.398 21 787.798 22.28 791.398 24.84C794.998 27.4 797.358 30.96 798.478 35.52C799.598 40 800.158 46.04 800.158 53.64C794.718 53.96 789.398 54.12 784.198 54.12H767.158C767.158 56.68 767.678 58.6 768.718 59.88C769.838 61.16 771.398 62 773.398 62.4C775.398 62.72 778.198 62.88 781.798 62.88ZM768.358 35.28C767.878 35.52 767.518 36.56 767.278 38.4C767.038 40.24 766.878 42.32 766.798 44.64H773.038C776.798 44.64 779.518 44.6 781.198 44.52C781.198 40.68 780.638 37.96 779.518 36.36C778.478 34.76 776.638 33.96 773.998 33.96C771.838 33.96 769.958 34.4 768.358 35.28Z" fill="#BDE8F5"/>
<path d="M880.388 4.44V77.28H863.468L861.787 68.04C860.188 71.16 857.828 73.64 854.708 75.48C851.588 77.32 848.068 78.24 844.148 78.24C837.908 78.24 832.908 76 829.148 71.52C825.468 67.04 823.628 60.32 823.628 51.36C823.628 44.56 824.428 38.96 826.028 34.56C827.628 30.16 829.508 27 831.667 25.08C833.027 23.88 835.788 22.88 839.948 22.08C844.188 21.28 847.947 20.88 851.227 20.88C854.107 20.88 857.068 21.16 860.107 21.72C859.867 17.88 859.747 15.76 859.747 15.36V5.28L880.388 4.44ZM853.148 62.16C855.307 62.16 857.547 61.8 859.867 61.08V35.04C857.547 34.72 854.987 34.56 852.188 34.56C849.787 34.56 848.268 34.76 847.628 35.16C846.747 35.8 846.028 37.64 845.468 40.68C844.988 43.64 844.747 46.76 844.747 50.04C844.747 54.92 845.468 58.16 846.908 59.76C848.428 61.36 850.508 62.16 853.148 62.16Z" fill="#BDE8F5"/>
<path d="M916.872 78.84C907.272 78.84 900.072 76.6 895.272 72.12C890.552 67.56 888.192 60.4 888.192 50.64C888.192 45.28 888.672 40.6 889.632 36.6C890.672 32.52 891.912 29.68 893.352 28.08C895.192 26 898.552 24.28 903.432 22.92C908.392 21.56 913.032 20.88 917.352 20.88C927.672 20.88 935.032 23.08 939.432 27.48C943.832 31.88 946.032 38.92 946.032 48.6C946.032 59 943.672 66.64 938.952 71.52C934.232 76.4 926.872 78.84 916.872 78.84ZM917.232 64.8C920.352 64.8 922.392 63.72 923.352 61.56C924.312 59.32 924.792 55.4 924.792 49.8C924.792 45.88 924.592 42.88 924.192 40.8C923.792 38.64 923.032 37.08 921.912 36.12C920.872 35.08 919.232 34.56 916.992 34.56C913.792 34.56 911.952 34.84 911.472 35.4C910.832 35.96 910.312 37.72 909.912 40.68C909.512 43.64 909.312 46.72 909.312 49.92C909.312 55.36 909.832 59.2 910.872 61.44C911.992 63.68 914.112 64.8 917.232 64.8Z" fill="#BDE8F5"/>
<path d="M971.505 53.16C965.505 53.08 960.185 51.96 955.545 49.8C955.545 46.2 955.345 42.16 954.945 37.68C954.625 33.12 954.025 28.84 953.145 24.84L954.105 24.36C958.505 25.24 962.625 25.68 966.465 25.68C969.585 25.68 972.065 25.4 973.905 24.84C975.745 24.2 976.665 23.28 976.665 22.08C976.665 20.88 975.585 20 973.425 19.44C971.345 18.88 968.585 18.6 965.145 18.6C963.145 18.6 960.225 18.76 956.385 19.08L953.745 4.44C955.585 2.68 957.385 1.52 959.145 0.960002C960.985 0.320001 962.945 0 965.025 0C969.905 0 974.065 1.12 977.505 3.36C981.025 5.6 983.665 8.52 985.425 12.12C987.185 15.72 988.065 19.48 988.065 23.4C988.065 29.48 986.665 34.28 983.865 37.8C981.145 41.24 977.185 43.32 971.985 44.04L972.105 52.56L971.505 53.16ZM964.185 78C961.385 78 959.145 77.16 957.465 75.48C955.785 73.72 954.945 71.36 954.945 68.4C954.945 65.84 955.785 63.68 957.465 61.92C959.225 60.16 961.385 59.28 963.945 59.28C966.585 59.28 968.785 60.16 970.545 61.92C972.385 63.68 973.305 65.84 973.305 68.4C973.305 71.36 972.425 73.72 970.665 75.48C968.985 77.16 966.825 78 964.185 78Z" fill="#BDE8F5"/>
<g opacity="0.72">
<circle cx="9.37476" cy="90.78" r="38.5" fill="#0F2854"/>
<circle cx="281.375" cy="90.78" r="38.5" fill="#0F2854"/>
<circle cx="553.375" cy="90.78" r="38.5" fill="#0F2854"/>
<circle cx="825.375" cy="90.78" r="38.5" fill="#0F2854"/>
<circle cx="79.8748" cy="75.28" r="23" fill="#0F2854"/>
<circle cx="351.875" cy="75.28" r="23" fill="#0F2854"/>
<circle cx="623.875" cy="75.28" r="23" fill="#0F2854"/>
<circle cx="895.875" cy="75.28" r="23" fill="#0F2854"/>
<circle cx="117.875" cy="68.28" r="23" fill="#0F2854"/>
<circle cx="389.875" cy="68.28" r="23" fill="#0F2854"/>
<circle cx="661.875" cy="68.28" r="23" fill="#0F2854"/>
<circle cx="933.875" cy="68.28" r="23" fill="#0F2854"/>
<circle cx="227.875" cy="68.28" r="23" fill="#0F2854"/>
<circle cx="499.875" cy="68.28" r="23" fill="#0F2854"/>
<circle cx="771.875" cy="68.28" r="23" fill="#0F2854"/>
<circle cx="172.875" cy="75.28" r="23" fill="#0F2854"/>
<circle cx="444.875" cy="75.28" r="23" fill="#0F2854"/>
<circle cx="716.875" cy="75.28" r="23" fill="#0F2854"/>
<circle cx="988.875" cy="75.28" r="23" fill="#0F2854"/>
</g>
</g>
</svg>
